<?xml version="1.0" encoding="utf-8"?>
<!-- Generator: Adobe Illustrator 28.2.0, SVG Export Plug-In . SVG Version: 6.00 Build 0)  -->
<svg version="1.1" id="Ebene_1" xmlns="http://www.w3.org/2000/svg" xmlns:xlink="http://www.w3.org/1999/xlink" x="0px" y="0px"
	 viewBox="0 0 499.5 310.4" style="enable-background:new 0 0 499.5 310.4;" xml:space="preserve">
<style type="text/css">
	.st0{fill:#DFC7A3;}
</style>
<g>
	<path class="st0" d="M82.9,238.9c-8.9,0-17.2-1.7-25-5c-7.8-3.4-14.6-8-20.5-13.8c-5.9-5.9-10.5-12.7-13.9-20.5
		c-3.4-7.8-5-16.1-5-25V37.6h36.6l0,57.5h47.7l14.2,36.6H55.1v42.8c0,3.9,0.7,7.5,2.2,10.8c1.4,3.4,3.4,6.3,5.9,8.8
		c2.5,2.5,5.5,4.5,8.9,6c3.4,1.5,7,2.2,10.9,2.2h61.4l14.2,36.6H82.9z"/>
</g>
<polygon class="st0" points="181.2,238.9 125.4,95.1 161.8,95.1 199.6,192.5 237.4,95.1 273.5,95.1 217.8,238.9 "/>
<g>
	<path class="st0" d="M440.4,3c13.9,4.8,23.9,18,23.9,33.6c0,19.6-15.9,35.5-35.5,35.5c-2.3,0-4.6-0.2-6.9-0.7c3.7,1.3,7.6,2,11.7,2
		c19.6,0,35.5-15.9,35.5-35.5C469.1,20.6,456.7,6.2,440.4,3"/>
	<path class="st0" d="M457.2,22.4c-4,14.2-22.4,5.6-22.4,5.6c0.1,0.9,4.8,12.4,4.8,12.4c3.6,8.3-0.8,7.2-4,6.9
		c-0.5-0.2,1.4,3.5-0.4,5.2c-1.9,1.7-5.5-0.4-2.9,1.2l0.5,0.4c1.3,0.9,0.9,2.6,0.1,3.4c-0.7,0.7-1.5,1.3-2.1,1.5
		c-1.2,0.5-1,4.1-1.8,5.4c-2.7,4.1-6.3,0.6-10.4-0.6c-1-0.3-3.2,1.9-5.1,3.5c-6.3-4.4-11.2-10.7-13.7-18.2
		c-1.1-3.5-1.8-7.2-1.8-11.1c0-11.2,5.1-21.1,13.2-27.6c5.6-4.5,12.6-7.4,20.3-7.8c4.4,4.6,5.7,10,6,11.8c0.1,0.4,0.3,0.7,0.7,0.8
		l18.2,6C457,21.3,457.3,21.8,457.2,22.4"/>
</g>
<path class="st0" d="M413.4,95.1h-8.9h-64.7c-10.1,0-19.7,1.9-28.6,5.8c-8.9,3.9-16.7,9.2-23.4,16c-6.7,6.8-11.9,14.9-15.8,24.2
	c-3.9,9.3-5.8,19.4-5.8,30.3c0,11.8,1.9,22.5,5.8,31.9c3.9,9.4,9.1,17.4,15.8,23.9c6.7,6.5,14.5,11.5,23.4,15
	c8.9,3.5,18.4,5.2,28.6,5.2c3,0,6.3-0.2,9.9-0.5c3.5-0.4,6.9-1,10.2-1.9c3.3-0.9,6.3-2.2,8.9-3.6c2.7-1.5,4.8-3.4,6.2-5.7
	c0,29.9-21.4,27.3-35.5,27.6l-321.1-0.2v36.7c0,0,325.6,0.3,327.8,0.3c51.8,0,67.2-19.6,67.2-55.4
	C413.4,242.3,413.4,95.1,413.4,95.1z M369.4,197.5c-3.5,3.6-7.6,6.4-12.2,8.5c-4.7,2.1-9.6,3.2-14.9,3.2c-5.3,0-10.2-0.9-14.9-2.7
	c-4.7-1.8-8.7-4.4-12.1-7.7c-3.4-3.3-6.1-7.3-8.1-12c-2-4.7-3-10-3-15.8c0-6.1,1-11.6,3-16.4c2-4.8,4.7-8.8,8.1-12
	c3.4-3.2,7.5-5.7,12.1-7.4c4.7-1.7,9.6-2.5,14.9-2.5c5.3,0,10.2,1.1,14.9,3.2c4.7,2.1,8.7,5,12.2,8.5c3.5,3.6,6.2,7.6,8.3,12.2
	c2,4.6,3,9.4,3,14.3s-1,9.7-3,14.3C375.6,189.9,372.9,194,369.4,197.5z M413.4,240.7c0-0.1,0-0.2,0-0.3
	C413.4,240.6,413.4,240.7,413.4,240.7z"/>
</svg>
